<?xml version="1.0" encoding="UTF-8" standalone="no"?>
<!DOCTYPE svg PUBLIC "-//W3C//DTD SVG 1.1//EN"
 "http://www.w3.org/Graphics/SVG/1.1/DTD/svg11.dtd">
<!-- Generated by graphviz version 2.43.0 (0)
 -->
<!-- Title: snakemake_dag Pages: 1 -->
<svg width="2312pt" height="1412pt"
 viewBox="0.00 0.00 2312.00 1412.00" xmlns="http://www.w3.org/2000/svg" xmlns:xlink="http://www.w3.org/1999/xlink">
<g id="graph0" class="graph" transform="scale(1 1) rotate(0) translate(4 1408)">
<title>snakemake_dag</title>
<polygon fill="white" stroke="transparent" points="-4,4 -4,-1408 2308,-1408 2308,4 -4,4"/>
<!-- 0 -->
<g id="node1" class="node">
<title>0</title>
<path fill="none" stroke="#61d856" stroke-width="2" d="M75,-108C75,-108 12,-108 12,-108 6,-108 0,-102 0,-96 0,-96 0,-84 0,-84 0,-78 6,-72 12,-72 12,-72 75,-72 75,-72 81,-72 87,-78 87,-84 87,-84 87,-96 87,-96 87,-102 81,-108 75,-108"/>
<text text-anchor="middle" x="43.5" y="-87.5" font-family="sans" font-size="10.00">raw_fastqc_pe</text>
</g>
<!-- 28 -->
<g id="node29" class="node">
<title>28</title>
<path fill="none" stroke="#ced856" stroke-width="2" d="M1133.5,-36C1133.5,-36 1103.5,-36 1103.5,-36 1097.5,-36 1091.5,-30 1091.5,-24 1091.5,-24 1091.5,-12 1091.5,-12 1091.5,-6 1097.5,0 1103.5,0 1103.5,0 1133.5,0 1133.5,0 1139.5,0 1145.5,-6 1145.5,-12 1145.5,-12 1145.5,-24 1145.5,-24 1145.5,-30 1139.5,-36 1133.5,-36"/>
<text text-anchor="middle" x="1118.5" y="-15.5" font-family="sans" font-size="10.00">all</text>
</g>
<!-- 0&#45;&gt;28 -->
<g id="edge56" class="edge">
<title>0&#45;&gt;28</title>
<path fill="none" stroke="grey" stroke-width="2" d="M87.24,-74.01C90.35,-73.24 93.46,-72.56 96.5,-72 291.04,-36.38 920.17,-22.63 1080.86,-19.65"/>
<polygon fill="grey" stroke="grey" stroke-width="2" points="1081.25,-23.14 1091.18,-19.46 1081.12,-16.15 1081.25,-23.14"/>
</g>
<!-- 1 -->
<g id="node2" class="node">
<title>1</title>
<path fill="none" stroke="#5682d8" stroke-width="2" d="M243,-324C243,-324 156,-324 156,-324 150,-324 144,-318 144,-312 144,-312 144,-300 144,-300 144,-294 150,-288 156,-288 156,-288 243,-288 243,-288 249,-288 255,-294 255,-300 255,-300 255,-312 255,-312 255,-318 249,-324 243,-324"/>
<text text-anchor="middle" x="199.5" y="-303.5" font-family="sans" font-size="10.00">trimmed_fastqc_pe</text>
</g>
<!-- 1&#45;&gt;28 -->
<g id="edge42" class="edge">
<title>1&#45;&gt;28</title>
<path fill="none" stroke="grey" stroke-width="2" d="M198.67,-288C197.55,-244 201.34,-126.08 269.5,-72 333.75,-21.03 925.79,-18.61 1081.26,-18.86"/>
<polygon fill="grey" stroke="grey" stroke-width="2" points="1081.26,-22.36 1091.27,-18.88 1081.28,-15.36 1081.26,-22.36"/>
</g>
<!-- 2 -->
<g id="node3" class="node">
<title>2</title>
<path fill="none" stroke="#b6d856" stroke-width="2" d="M238.5,-1116C238.5,-1116 160.5,-1116 160.5,-1116 154.5,-1116 148.5,-1110 148.5,-1104 148.5,-1104 148.5,-1092 148.5,-1092 148.5,-1086 154.5,-1080 160.5,-1080 160.5,-1080 238.5,-1080 238.5,-1080 244.5,-1080 250.5,-1086 250.5,-1092 250.5,-1092 250.5,-1104 250.5,-1104 250.5,-1110 244.5,-1116 238.5,-1116"/>
<text text-anchor="middle" x="199.5" y="-1095.5" font-family="sans" font-size="10.00">trimme_reads_PE</text>
</g>
<!-- 2&#45;&gt;1 -->
<g id="edge1" class="edge">
<title>2&#45;&gt;1</title>
<path fill="none" stroke="grey" stroke-width="2" d="M199.5,-1079.95C199.5,-1053.29 199.5,-1000.11 199.5,-955 199.5,-955 199.5,-955 199.5,-449 199.5,-409 199.5,-362.65 199.5,-334.08"/>
<polygon fill="grey" stroke="grey" stroke-width="2" points="203,-334.05 199.5,-324.05 196,-334.05 203,-334.05"/>
</g>
<!-- 14 -->
<g id="node15" class="node">
<title>14</title>
<path fill="none" stroke="#5673d8" stroke-width="2" d="M1292.5,-1044C1292.5,-1044 1250.5,-1044 1250.5,-1044 1244.5,-1044 1238.5,-1038 1238.5,-1032 1238.5,-1032 1238.5,-1020 1238.5,-1020 1238.5,-1014 1244.5,-1008 1250.5,-1008 1250.5,-1008 1292.5,-1008 1292.5,-1008 1298.5,-1008 1304.5,-1014 1304.5,-1020 1304.5,-1020 1304.5,-1032 1304.5,-1032 1304.5,-1038 1298.5,-1044 1292.5,-1044"/>
<text text-anchor="middle" x="1271.5" y="-1023.5" font-family="sans" font-size="10.00">snippy_pe</text>
</g>
<!-- 2&#45;&gt;14 -->
<g id="edge14" class="edge">
<title>2&#45;&gt;14</title>
<path fill="none" stroke="grey" stroke-width="2" d="M250.51,-1095.77C428.54,-1091.27 1021.75,-1074.3 1209.5,-1044 1215.72,-1043 1222.21,-1041.61 1228.55,-1040.06"/>
<polygon fill="grey" stroke="grey" stroke-width="2" points="1229.53,-1043.42 1238.33,-1037.51 1227.77,-1036.64 1229.53,-1043.42"/>
</g>
<!-- 25 -->
<g id="node26" class="node">
<title>25</title>
<path fill="none" stroke="#d85656" stroke-width="2" d="M164.5,-180C164.5,-180 120.5,-180 120.5,-180 114.5,-180 108.5,-174 108.5,-168 108.5,-168 108.5,-156 108.5,-156 108.5,-150 114.5,-144 120.5,-144 120.5,-144 164.5,-144 164.5,-144 170.5,-144 176.5,-150 176.5,-156 176.5,-156 176.5,-168 176.5,-168 176.5,-174 170.5,-180 164.5,-180"/>
<text text-anchor="middle" x="142.5" y="-159.5" font-family="sans" font-size="10.00">spades_pe</text>
</g>
<!-- 2&#45;&gt;25 -->
<g id="edge24" class="edge">
<title>2&#45;&gt;25</title>
<path fill="none" stroke="grey" stroke-width="2" d="M180.86,-1079.69C156.11,-1054.72 115.5,-1005.98 115.5,-955 115.5,-955 115.5,-955 115.5,-305 115.5,-264.5 126.23,-218.63 134.16,-190.26"/>
<polygon fill="grey" stroke="grey" stroke-width="2" points="137.63,-190.87 137.04,-180.29 130.9,-188.93 137.63,-190.87"/>
</g>
<!-- 3 -->
<g id="node4" class="node">
<title>3</title>
<path fill="none" stroke="#56a2d8" stroke-width="2" d="M2190.5,-108C2190.5,-108 2128.5,-108 2128.5,-108 2122.5,-108 2116.5,-102 2116.5,-96 2116.5,-96 2116.5,-84 2116.5,-84 2116.5,-78 2122.5,-72 2128.5,-72 2128.5,-72 2190.5,-72 2190.5,-72 2196.5,-72 2202.5,-78 2202.5,-84 2202.5,-84 2202.5,-96 2202.5,-96 2202.5,-102 2196.5,-108 2190.5,-108"/>
<text text-anchor="middle" x="2159.5" y="-87.5" font-family="sans" font-size="10.00">raw_fastqc_se</text>
</g>
<!-- 3&#45;&gt;28 -->
<g id="edge33" class="edge">
<title>3&#45;&gt;28</title>
<path fill="none" stroke="grey" stroke-width="2" d="M2116.5,-75.01C2111.81,-73.84 2107.08,-72.79 2102.5,-72 1915.27,-39.51 1312.03,-23.5 1155.75,-19.83"/>
<polygon fill="grey" stroke="grey" stroke-width="2" points="1155.78,-16.33 1145.7,-19.6 1155.61,-23.33 1155.78,-16.33"/>
</g>
<!-- 4 -->
<g id="node5" class="node">
<title>4</title>
<path fill="none" stroke="#56c9d8" stroke-width="2" d="M2046.5,-828C2046.5,-828 1960.5,-828 1960.5,-828 1954.5,-828 1948.5,-822 1948.5,-816 1948.5,-816 1948.5,-804 1948.5,-804 1948.5,-798 1954.5,-792 1960.5,-792 1960.5,-792 2046.5,-792 2046.5,-792 2052.5,-792 2058.5,-798 2058.5,-804 2058.5,-804 2058.5,-816 2058.5,-816 2058.5,-822 2052.5,-828 2046.5,-828"/>
<text text-anchor="middle" x="2003.5" y="-807.5" font-family="sans" font-size="10.00">trimmed_fastqc_se</text>
</g>
<!-- 4&#45;&gt;28 -->
<g id="edge59" class="edge">
<title>4&#45;&gt;28</title>
<path fill="none" stroke="grey" stroke-width="2" d="M1994.18,-791.63C1981,-765.41 1958.5,-713.81 1958.5,-667 1958.5,-667 1958.5,-667 1958.5,-161 1958.5,-120.03 1966.2,-97.96 1934.5,-72 1873.69,-22.21 1307.55,-18.9 1155.78,-18.91"/>
<polygon fill="grey" stroke="grey" stroke-width="2" points="1155.58,-15.41 1145.59,-18.92 1155.59,-22.41 1155.58,-15.41"/>
</g>
<!-- 5 -->
<g id="node6" class="node">
<title>5</title>
<path fill="none" stroke="#56d8d8" stroke-width="2" d="M2042.5,-1116C2042.5,-1116 1964.5,-1116 1964.5,-1116 1958.5,-1116 1952.5,-1110 1952.5,-1104 1952.5,-1104 1952.5,-1092 1952.5,-1092 1952.5,-1086 1958.5,-1080 1964.5,-1080 1964.5,-1080 2042.5,-1080 2042.5,-1080 2048.5,-1080 2054.5,-1086 2054.5,-1092 2054.5,-1092 2054.5,-1104 2054.5,-1104 2054.5,-1110 2048.5,-1116 2042.5,-1116"/>
<text text-anchor="middle" x="2003.5" y="-1095.5" font-family="sans" font-size="10.00">trimme_reads_SE</text>
</g>
<!-- 5&#45;&gt;4 -->
<g id="edge2" class="edge">
<title>5&#45;&gt;4</title>
<path fill="none" stroke="grey" stroke-width="2" d="M2003.5,-1079.97C2003.5,-1032.29 2003.5,-897.18 2003.5,-838.63"/>
<polygon fill="grey" stroke="grey" stroke-width="2" points="2007,-838.31 2003.5,-828.31 2000,-838.31 2007,-838.31"/>
</g>
<!-- 11 -->
<g id="node12" class="node">
<title>11</title>
<path fill="none" stroke="#56b1d8" stroke-width="2" d="M1434,-1044C1434,-1044 1393,-1044 1393,-1044 1387,-1044 1381,-1038 1381,-1032 1381,-1032 1381,-1020 1381,-1020 1381,-1014 1387,-1008 1393,-1008 1393,-1008 1434,-1008 1434,-1008 1440,-1008 1446,-1014 1446,-1020 1446,-1020 1446,-1032 1446,-1032 1446,-1038 1440,-1044 1434,-1044"/>
<text text-anchor="middle" x="1413.5" y="-1023.5" font-family="sans" font-size="10.00">snippy_se</text>
</g>
<!-- 5&#45;&gt;11 -->
<g id="edge10" class="edge">
<title>5&#45;&gt;11</title>
<path fill="none" stroke="grey" stroke-width="2" d="M1952.43,-1090.94C1837.97,-1077.36 1562.61,-1044.69 1456.35,-1032.08"/>
<polygon fill="grey" stroke="grey" stroke-width="2" points="1456.65,-1028.59 1446.3,-1030.89 1455.82,-1035.55 1456.65,-1028.59"/>
</g>
<!-- 23 -->
<g id="node24" class="node">
<title>23</title>
<path fill="none" stroke="#56d8d8" stroke-width="2" d="M2108.5,-180C2108.5,-180 2064.5,-180 2064.5,-180 2058.5,-180 2052.5,-174 2052.5,-168 2052.5,-168 2052.5,-156 2052.5,-156 2052.5,-150 2058.5,-144 2064.5,-144 2064.5,-144 2108.5,-144 2108.5,-144 2114.5,-144 2120.5,-150 2120.5,-156 2120.5,-156 2120.5,-168 2120.5,-168 2120.5,-174 2114.5,-180 2108.5,-180"/>
<text text-anchor="middle" x="2086.5" y="-159.5" font-family="sans" font-size="10.00">spades_se</text>
</g>
<!-- 5&#45;&gt;23 -->
<g id="edge22" class="edge">
<title>5&#45;&gt;23</title>
<path fill="none" stroke="grey" stroke-width="2" d="M2021.92,-1079.64C2046.37,-1054.62 2086.5,-1005.83 2086.5,-955 2086.5,-955 2086.5,-955 2086.5,-305 2086.5,-265 2086.5,-218.65 2086.5,-190.08"/>
<polygon fill="grey" stroke="grey" stroke-width="2" points="2090,-190.05 2086.5,-180.05 2083,-190.05 2090,-190.05"/>
</g>
<!-- 6 -->
<g id="node7" class="node">
<title>6</title>
<path fill="none" stroke="#56d88a" stroke-width="2" d="M1443,-684C1443,-684 1288,-684 1288,-684 1282,-684 1276,-678 1276,-672 1276,-672 1276,-660 1276,-660 1276,-654 1282,-648 1288,-648 1288,-648 1443,-648 1443,-648 1449,-648 1455,-654 1455,-660 1455,-660 1455,-672 1455,-672 1455,-678 1449,-684 1443,-684"/>
<text text-anchor="middle" x="1365.5" y="-663.5" font-family="sans" font-size="10.00">mask_regions_consensus_snippy</text>
</g>
<!-- 6&#45;&gt;28 -->
<g id="edge37" class="edge">
<title>6&#45;&gt;28</title>
<path fill="none" stroke="grey" stroke-width="2" d="M1366.69,-647.96C1368.43,-621.31 1371.5,-568.15 1371.5,-523 1371.5,-523 1371.5,-523 1371.5,-161 1371.5,-120.55 1380.92,-100.78 1352.5,-72 1325.37,-44.53 1214.84,-29.05 1155.91,-22.6"/>
<polygon fill="grey" stroke="grey" stroke-width="2" points="1156.2,-19.12 1145.89,-21.54 1155.46,-26.08 1156.2,-19.12"/>
</g>
<!-- 35 -->
<g id="node36" class="node">
<title>35</title>
<path fill="none" stroke="#56c1d8" stroke-width="2" d="M1253,-612C1253,-612 1200,-612 1200,-612 1194,-612 1188,-606 1188,-600 1188,-600 1188,-588 1188,-588 1188,-582 1194,-576 1200,-576 1200,-576 1253,-576 1253,-576 1259,-576 1265,-582 1265,-588 1265,-588 1265,-600 1265,-600 1265,-606 1259,-612 1253,-612"/>
<text text-anchor="middle" x="1226.5" y="-591.5" font-family="sans" font-size="10.00">makeproject</text>
</g>
<!-- 6&#45;&gt;35 -->
<g id="edge71" class="edge">
<title>6&#45;&gt;35</title>
<path fill="none" stroke="grey" stroke-width="2" d="M1331.5,-647.88C1312.9,-638.51 1289.67,-626.81 1269.79,-616.8"/>
<polygon fill="grey" stroke="grey" stroke-width="2" points="1271.14,-613.56 1260.63,-612.19 1267.99,-619.81 1271.14,-613.56"/>
</g>
<!-- 7 -->
<g id="node8" class="node">
<title>7</title>
<path fill="none" stroke="#56d8d0" stroke-width="2" d="M1438.5,-756C1438.5,-756 1292.5,-756 1292.5,-756 1286.5,-756 1280.5,-750 1280.5,-744 1280.5,-744 1280.5,-732 1280.5,-732 1280.5,-726 1286.5,-720 1292.5,-720 1292.5,-720 1438.5,-720 1438.5,-720 1444.5,-720 1450.5,-726 1450.5,-732 1450.5,-732 1450.5,-744 1450.5,-744 1450.5,-750 1444.5,-756 1438.5,-756"/>
<text text-anchor="middle" x="1365.5" y="-735.5" font-family="sans" font-size="10.00">get_masked_consensus_snippy</text>
</g>
<!-- 7&#45;&gt;6 -->
<g id="edge3" class="edge">
<title>7&#45;&gt;6</title>
<path fill="none" stroke="grey" stroke-width="2" d="M1365.5,-719.7C1365.5,-711.98 1365.5,-702.71 1365.5,-694.11"/>
<polygon fill="grey" stroke="grey" stroke-width="2" points="1369,-694.1 1365.5,-684.1 1362,-694.1 1369,-694.1"/>
</g>
<!-- 8 -->
<g id="node9" class="node">
<title>8</title>
<path fill="none" stroke="#56d8c1" stroke-width="2" d="M1411.5,-828C1411.5,-828 1319.5,-828 1319.5,-828 1313.5,-828 1307.5,-822 1307.5,-816 1307.5,-816 1307.5,-804 1307.5,-804 1307.5,-798 1313.5,-792 1319.5,-792 1319.5,-792 1411.5,-792 1411.5,-792 1417.5,-792 1423.5,-798 1423.5,-804 1423.5,-804 1423.5,-816 1423.5,-816 1423.5,-822 1417.5,-828 1411.5,-828"/>
<text text-anchor="middle" x="1365.5" y="-807.5" font-family="sans" font-size="10.00">msa_masker_snippy</text>
</g>
<!-- 8&#45;&gt;7 -->
<g id="edge4" class="edge">
<title>8&#45;&gt;7</title>
<path fill="none" stroke="grey" stroke-width="2" d="M1365.5,-791.7C1365.5,-783.98 1365.5,-774.71 1365.5,-766.11"/>
<polygon fill="grey" stroke="grey" stroke-width="2" points="1369,-766.1 1365.5,-756.1 1362,-766.1 1369,-766.1"/>
</g>
<!-- 9 -->
<g id="node10" class="node">
<title>9</title>
<path fill="none" stroke="#d6d856" stroke-width="2" d="M1329.5,-900C1329.5,-900 1243.5,-900 1243.5,-900 1237.5,-900 1231.5,-894 1231.5,-888 1231.5,-888 1231.5,-876 1231.5,-876 1231.5,-870 1237.5,-864 1243.5,-864 1243.5,-864 1329.5,-864 1329.5,-864 1335.5,-864 1341.5,-870 1341.5,-876 1341.5,-876 1341.5,-888 1341.5,-888 1341.5,-894 1335.5,-900 1329.5,-900"/>
<text text-anchor="middle" x="1286.5" y="-879.5" font-family="sans" font-size="10.00">align_mafft_snippy</text>
</g>
<!-- 9&#45;&gt;8 -->
<g id="edge5" class="edge">
<title>9&#45;&gt;8</title>
<path fill="none" stroke="grey" stroke-width="2" d="M1306.03,-863.7C1315.88,-854.97 1327.99,-844.24 1338.7,-834.75"/>
<polygon fill="grey" stroke="grey" stroke-width="2" points="1341.03,-837.36 1346.2,-828.1 1336.39,-832.12 1341.03,-837.36"/>
</g>
<!-- 10 -->
<g id="node11" class="node">
<title>10</title>
<path fill="none" stroke="#8fd856" stroke-width="2" d="M1326.5,-972C1326.5,-972 1216.5,-972 1216.5,-972 1210.5,-972 1204.5,-966 1204.5,-960 1204.5,-960 1204.5,-948 1204.5,-948 1204.5,-942 1210.5,-936 1216.5,-936 1216.5,-936 1326.5,-936 1326.5,-936 1332.5,-936 1338.5,-942 1338.5,-948 1338.5,-948 1338.5,-960 1338.5,-960 1338.5,-966 1332.5,-972 1326.5,-972"/>
<text text-anchor="middle" x="1271.5" y="-951.5" font-family="sans" font-size="10.00">create_align_file_snippy</text>
</g>
<!-- 10&#45;&gt;9 -->
<g id="edge7" class="edge">
<title>10&#45;&gt;9</title>
<path fill="none" stroke="grey" stroke-width="2" d="M1275.21,-935.7C1276.86,-927.98 1278.85,-918.71 1280.69,-910.11"/>
<polygon fill="grey" stroke="grey" stroke-width="2" points="1284.16,-910.62 1282.83,-900.1 1277.32,-909.15 1284.16,-910.62"/>
</g>
<!-- 11&#45;&gt;10 -->
<g id="edge9" class="edge">
<title>11&#45;&gt;10</title>
<path fill="none" stroke="grey" stroke-width="2" d="M1380.92,-1008.94C1361.52,-999.38 1336.64,-987.11 1315.51,-976.7"/>
<polygon fill="grey" stroke="grey" stroke-width="2" points="1316.92,-973.49 1306.41,-972.21 1313.83,-979.77 1316.92,-973.49"/>
</g>
<!-- 13 -->
<g id="node14" class="node">
<title>13</title>
<path fill="none" stroke="#56b9d8" stroke-width="2" d="M1458,-972C1458,-972 1369,-972 1369,-972 1363,-972 1357,-966 1357,-960 1357,-960 1357,-948 1357,-948 1357,-942 1363,-936 1369,-936 1369,-936 1458,-936 1458,-936 1464,-936 1470,-942 1470,-948 1470,-948 1470,-960 1470,-960 1470,-966 1464,-972 1458,-972"/>
<text text-anchor="middle" x="1413.5" y="-951.5" font-family="sans" font-size="10.00">snippy_unzip_depth</text>
</g>
<!-- 11&#45;&gt;13 -->
<g id="edge13" class="edge">
<title>11&#45;&gt;13</title>
<path fill="none" stroke="grey" stroke-width="2" d="M1413.5,-1007.7C1413.5,-999.98 1413.5,-990.71 1413.5,-982.11"/>
<polygon fill="grey" stroke="grey" stroke-width="2" points="1417,-982.1 1413.5,-972.1 1410,-982.1 1417,-982.1"/>
</g>
<!-- 15 -->
<g id="node16" class="node">
<title>15</title>
<path fill="none" stroke="#d89c56" stroke-width="2" d="M994,-972C994,-972 939,-972 939,-972 933,-972 927,-966 927,-960 927,-960 927,-948 927,-948 927,-942 933,-936 939,-936 939,-936 994,-936 994,-936 1000,-936 1006,-942 1006,-948 1006,-948 1006,-960 1006,-960 1006,-966 1000,-972 994,-972"/>
<text text-anchor="middle" x="966.5" y="-951.5" font-family="sans" font-size="10.00">getCoverage</text>
</g>
<!-- 11&#45;&gt;15 -->
<g id="edge16" class="edge">
<title>11&#45;&gt;15</title>
<path fill="none" stroke="grey" stroke-width="2" d="M1380.64,-1019.27C1361.14,-1015.91 1335.93,-1011.62 1313.5,-1008 1257.25,-998.92 1098.02,-974.83 1016.27,-962.5"/>
<polygon fill="grey" stroke="grey" stroke-width="2" points="1016.64,-959.01 1006.22,-960.98 1015.59,-965.93 1016.64,-959.01"/>
</g>
<!-- 31 -->
<g id="node32" class="node">
<title>31</title>
<path fill="none" stroke="#c6d856" stroke-width="2" d="M1541,-972C1541,-972 1500,-972 1500,-972 1494,-972 1488,-966 1488,-960 1488,-960 1488,-948 1488,-948 1488,-942 1494,-936 1500,-936 1500,-936 1541,-936 1541,-936 1547,-936 1553,-942 1553,-948 1553,-948 1553,-960 1553,-960 1553,-966 1547,-972 1541,-972"/>
<text text-anchor="middle" x="1520.5" y="-951.5" font-family="sans" font-size="10.00">freebayes</text>
</g>
<!-- 11&#45;&gt;31 -->
<g id="edge65" class="edge">
<title>11&#45;&gt;31</title>
<path fill="none" stroke="grey" stroke-width="2" d="M1439.68,-1007.88C1453.54,-998.81 1470.74,-987.55 1485.71,-977.76"/>
<polygon fill="grey" stroke="grey" stroke-width="2" points="1487.77,-980.59 1494.22,-972.19 1483.94,-974.74 1487.77,-980.59"/>
</g>
<!-- 12 -->
<g id="node13" class="node">
<title>12</title>
<path fill="none" stroke="#56d8c9" stroke-width="2" d="M1455.5,-900C1455.5,-900 1371.5,-900 1371.5,-900 1365.5,-900 1359.5,-894 1359.5,-888 1359.5,-888 1359.5,-876 1359.5,-876 1359.5,-870 1365.5,-864 1371.5,-864 1371.5,-864 1455.5,-864 1455.5,-864 1461.5,-864 1467.5,-870 1467.5,-876 1467.5,-876 1467.5,-888 1467.5,-888 1467.5,-894 1461.5,-900 1455.5,-900"/>
<text text-anchor="middle" x="1413.5" y="-879.5" font-family="sans" font-size="10.00">snippy_split_depth</text>
</g>
<!-- 12&#45;&gt;8 -->
<g id="edge6" class="edge">
<title>12&#45;&gt;8</title>
<path fill="none" stroke="grey" stroke-width="2" d="M1401.63,-863.7C1396,-855.47 1389.15,-845.48 1382.93,-836.42"/>
<polygon fill="grey" stroke="grey" stroke-width="2" points="1385.77,-834.37 1377.23,-828.1 1380,-838.33 1385.77,-834.37"/>
</g>
<!-- 13&#45;&gt;12 -->
<g id="edge11" class="edge">
<title>13&#45;&gt;12</title>
<path fill="none" stroke="grey" stroke-width="2" d="M1413.5,-935.7C1413.5,-927.98 1413.5,-918.71 1413.5,-910.11"/>
<polygon fill="grey" stroke="grey" stroke-width="2" points="1417,-910.1 1413.5,-900.1 1410,-910.1 1417,-910.1"/>
</g>
<!-- 14&#45;&gt;10 -->
<g id="edge8" class="edge">
<title>14&#45;&gt;10</title>
<path fill="none" stroke="grey" stroke-width="2" d="M1271.5,-1007.7C1271.5,-999.98 1271.5,-990.71 1271.5,-982.11"/>
<polygon fill="grey" stroke="grey" stroke-width="2" points="1275,-982.1 1271.5,-972.1 1268,-982.1 1275,-982.1"/>
</g>
<!-- 14&#45;&gt;13 -->
<g id="edge12" class="edge">
<title>14&#45;&gt;13</title>
<path fill="none" stroke="grey" stroke-width="2" d="M1304.79,-1008.59C1324.22,-999.01 1348.94,-986.82 1369.9,-976.49"/>
<polygon fill="grey" stroke="grey" stroke-width="2" points="1371.51,-979.6 1378.93,-972.04 1368.42,-973.32 1371.51,-979.6"/>
</g>
<!-- 14&#45;&gt;15 -->
<g id="edge15" class="edge">
<title>14&#45;&gt;15</title>
<path fill="none" stroke="grey" stroke-width="2" d="M1238.44,-1015.59C1229.11,-1013.03 1218.93,-1010.32 1209.5,-1008 1142.95,-991.63 1065.52,-975.19 1016.28,-965.05"/>
<polygon fill="grey" stroke="grey" stroke-width="2" points="1016.71,-961.57 1006.21,-962.99 1015.31,-968.43 1016.71,-961.57"/>
</g>
<!-- 14&#45;&gt;31 -->
<g id="edge64" class="edge">
<title>14&#45;&gt;31</title>
<path fill="none" stroke="grey" stroke-width="2" d="M1304.71,-1018.09C1344.18,-1009.53 1412.11,-993.75 1478.25,-972.2"/>
<polygon fill="grey" stroke="grey" stroke-width="2" points="1479.59,-975.44 1487.99,-968.98 1477.39,-968.79 1479.59,-975.44"/>
</g>
<!-- 16 -->
<g id="node17" class="node">
<title>16</title>
<path fill="none" stroke="#d8bc56" stroke-width="2" d="M627,-612C627,-612 556,-612 556,-612 550,-612 544,-606 544,-600 544,-600 544,-588 544,-588 544,-582 550,-576 556,-576 556,-576 627,-576 627,-576 633,-576 639,-582 639,-588 639,-588 639,-600 639,-600 639,-606 633,-612 627,-612"/>
<text text-anchor="middle" x="591.5" y="-591.5" font-family="sans" font-size="10.00">mergeCoverage</text>
</g>
<!-- 15&#45;&gt;16 -->
<g id="edge18" class="edge">
<title>15&#45;&gt;16</title>
<path fill="none" stroke="grey" stroke-width="2" d="M926.99,-937.26C881.06,-916.05 811.5,-873.59 811.5,-811 811.5,-811 811.5,-811 811.5,-737 811.5,-659.6 714.19,-622.34 649,-606.07"/>
<polygon fill="grey" stroke="grey" stroke-width="2" points="649.78,-602.66 639.24,-603.73 648.14,-609.46 649.78,-602.66"/>
</g>
<!-- 15&#45;&gt;28 -->
<g id="edge45" class="edge">
<title>15&#45;&gt;28</title>
<path fill="none" stroke="grey" stroke-width="2" d="M926.83,-953.27C781.06,-953.21 283.5,-943.31 283.5,-811 283.5,-811 283.5,-811 283.5,-161 283.5,-117.63 287.89,-96.75 323.5,-72 386.17,-28.43 931.78,-20.59 1080.95,-19.26"/>
<polygon fill="grey" stroke="grey" stroke-width="2" points="1081.42,-22.76 1091.39,-19.17 1081.36,-15.76 1081.42,-22.76"/>
</g>
<!-- 16&#45;&gt;28 -->
<g id="edge53" class="edge">
<title>16&#45;&gt;28</title>
<path fill="none" stroke="grey" stroke-width="2" d="M543.88,-589.06C479.26,-582.73 368.6,-568.04 340.5,-540 311.87,-511.43 321.5,-491.45 321.5,-451 321.5,-451 321.5,-451 321.5,-161 321.5,-118.5 322.23,-97.14 356.5,-72 415.31,-28.87 935.77,-20.73 1081.01,-19.29"/>
<polygon fill="grey" stroke="grey" stroke-width="2" points="1081.23,-22.79 1091.2,-19.19 1081.16,-15.79 1081.23,-22.79"/>
</g>
<!-- 49 -->
<g id="node50" class="node">
<title>49</title>
<path fill="none" stroke="#d8d356" stroke-width="2" d="M969.5,-540C969.5,-540 873.5,-540 873.5,-540 867.5,-540 861.5,-534 861.5,-528 861.5,-528 861.5,-516 861.5,-516 861.5,-510 867.5,-504 873.5,-504 873.5,-504 969.5,-504 969.5,-504 975.5,-504 981.5,-510 981.5,-516 981.5,-516 981.5,-528 981.5,-528 981.5,-534 975.5,-540 969.5,-540"/>
<text text-anchor="middle" x="921.5" y="-519.5" font-family="sans" font-size="10.00">assemble_consensus</text>
</g>
<!-- 16&#45;&gt;49 -->
<g id="edge89" class="edge">
<title>16&#45;&gt;49</title>
<path fill="none" stroke="grey" stroke-width="2" d="M639.13,-582.9C694.79,-571.09 787.39,-551.45 851.28,-537.89"/>
<polygon fill="grey" stroke="grey" stroke-width="2" points="852.23,-541.27 861.28,-535.77 850.77,-534.42 852.23,-541.27"/>
</g>
<!-- 60 -->
<g id="node61" class="node">
<title>60</title>
<path fill="none" stroke="#56d86b" stroke-width="2" d="M871.5,-252C871.5,-252 835.5,-252 835.5,-252 829.5,-252 823.5,-246 823.5,-240 823.5,-240 823.5,-228 823.5,-228 823.5,-222 829.5,-216 835.5,-216 835.5,-216 871.5,-216 871.5,-216 877.5,-216 883.5,-222 883.5,-228 883.5,-228 883.5,-240 883.5,-240 883.5,-246 877.5,-252 871.5,-252"/>
<text text-anchor="middle" x="853.5" y="-231.5" font-family="sans" font-size="10.00">translate</text>
</g>
<!-- 16&#45;&gt;60 -->
<g id="edge101" class="edge">
<title>16&#45;&gt;60</title>
<path fill="none" stroke="grey" stroke-width="2" d="M565.71,-575.94C533.2,-552.16 481.5,-505.73 481.5,-451 481.5,-451 481.5,-451 481.5,-377 481.5,-306.55 717.31,-258.27 813.44,-241.51"/>
<polygon fill="grey" stroke="grey" stroke-width="2" points="814.11,-244.95 823.37,-239.81 812.92,-238.05 814.11,-244.95"/>
</g>
<!-- 17 -->
<g id="node18" class="node">
<title>17</title>
<path fill="none" stroke="#68d856" stroke-width="2" d="M1077.5,-1188C1077.5,-1188 991.5,-1188 991.5,-1188 985.5,-1188 979.5,-1182 979.5,-1176 979.5,-1176 979.5,-1164 979.5,-1164 979.5,-1158 985.5,-1152 991.5,-1152 991.5,-1152 1077.5,-1152 1077.5,-1152 1083.5,-1152 1089.5,-1158 1089.5,-1164 1089.5,-1164 1089.5,-1176 1089.5,-1176 1089.5,-1182 1083.5,-1188 1077.5,-1188"/>
<text text-anchor="middle" x="1034.5" y="-1167.5" font-family="sans" font-size="10.00">medaka_get_depth</text>
</g>
<!-- 17&#45;&gt;15 -->
<g id="edge17" class="edge">
<title>17&#45;&gt;15</title>
<path fill="none" stroke="grey" stroke-width="2" d="M1029.05,-1151.85C1017.24,-1114.68 989.2,-1026.44 975.02,-981.82"/>
<polygon fill="grey" stroke="grey" stroke-width="2" points="978.34,-980.7 971.98,-972.23 971.67,-982.82 978.34,-980.7"/>
</g>
<!-- 42 -->
<g id="node43" class="node">
<title>42</title>
<path fill="none" stroke="#59d856" stroke-width="2" d="M1233.5,-1116C1233.5,-1116 1105.5,-1116 1105.5,-1116 1099.5,-1116 1093.5,-1110 1093.5,-1104 1093.5,-1104 1093.5,-1092 1093.5,-1092 1093.5,-1086 1099.5,-1080 1105.5,-1080 1105.5,-1080 1233.5,-1080 1233.5,-1080 1239.5,-1080 1245.5,-1086 1245.5,-1092 1245.5,-1092 1245.5,-1104 1245.5,-1104 1245.5,-1110 1239.5,-1116 1233.5,-1116"/>
<text text-anchor="middle" x="1169.5" y="-1095.5" font-family="sans" font-size="10.00">mask_between_top_and_50</text>
</g>
<!-- 17&#45;&gt;42 -->
<g id="edge81" class="edge">
<title>17&#45;&gt;42</title>
<path fill="none" stroke="grey" stroke-width="2" d="M1067.52,-1151.88C1085.58,-1142.51 1108.15,-1130.81 1127.45,-1120.8"/>
<polygon fill="grey" stroke="grey" stroke-width="2" points="1129.08,-1123.9 1136.35,-1116.19 1125.86,-1117.69 1129.08,-1123.9"/>
</g>
<!-- 45 -->
<g id="node46" class="node">
<title>45</title>
<path fill="none" stroke="#567bd8" stroke-width="2" d="M1053,-900C1053,-900 962,-900 962,-900 956,-900 950,-894 950,-888 950,-888 950,-876 950,-876 950,-870 956,-864 962,-864 962,-864 1053,-864 1053,-864 1059,-864 1065,-870 1065,-876 1065,-876 1065,-888 1065,-888 1065,-894 1059,-900 1053,-900"/>
<text text-anchor="middle" x="1007.5" y="-879.5" font-family="sans" font-size="10.00">medaka_split_depth</text>
</g>
<!-- 17&#45;&gt;45 -->
<g id="edge85" class="edge">
<title>17&#45;&gt;45</title>
<path fill="none" stroke="grey" stroke-width="2" d="M1033.29,-1151.73C1030.52,-1113.04 1023.27,-1016.52 1014.5,-936 1013.58,-927.57 1012.43,-918.4 1011.32,-910.1"/>
<polygon fill="grey" stroke="grey" stroke-width="2" points="1014.79,-909.6 1009.97,-900.16 1007.85,-910.54 1014.79,-909.6"/>
</g>
<!-- 18 -->
<g id="node19" class="node">
<title>18</title>
<path fill="none" stroke="#565bd8" stroke-width="2" d="M1322.5,-1332C1322.5,-1332 1234.5,-1332 1234.5,-1332 1228.5,-1332 1222.5,-1326 1222.5,-1320 1222.5,-1320 1222.5,-1308 1222.5,-1308 1222.5,-1302 1228.5,-1296 1234.5,-1296 1234.5,-1296 1322.5,-1296 1322.5,-1296 1328.5,-1296 1334.5,-1302 1334.5,-1308 1334.5,-1308 1334.5,-1320 1334.5,-1320 1334.5,-1326 1328.5,-1332 1322.5,-1332"/>
<text text-anchor="middle" x="1278.5" y="-1311.5" font-family="sans" font-size="10.00">medaka_consensus</text>
</g>
<!-- 18&#45;&gt;17 -->
<g id="edge19" class="edge">
<title>18&#45;&gt;17</title>
<path fill="none" stroke="grey" stroke-width="2" d="M1230.2,-1295.93C1206.17,-1286.63 1177.08,-1274.14 1152.5,-1260 1119.28,-1240.88 1084.65,-1213.77 1061.56,-1194.5"/>
<polygon fill="grey" stroke="grey" stroke-width="2" points="1063.8,-1191.81 1053.9,-1188.04 1059.29,-1197.16 1063.8,-1191.81"/>
</g>
<!-- 18&#45;&gt;31 -->
<g id="edge66" class="edge">
<title>18&#45;&gt;31</title>
<path fill="none" stroke="grey" stroke-width="2" d="M1334.61,-1302.13C1399.5,-1285.92 1497.5,-1248.6 1497.5,-1171 1497.5,-1171 1497.5,-1171 1497.5,-1097 1497.5,-1056.7 1506.64,-1010.78 1513.4,-982.34"/>
<polygon fill="grey" stroke="grey" stroke-width="2" points="1516.87,-982.89 1515.85,-972.34 1510.07,-981.22 1516.87,-982.89"/>
</g>
<!-- 18&#45;&gt;42 -->
<g id="edge80" class="edge">
<title>18&#45;&gt;42</title>
<path fill="none" stroke="grey" stroke-width="2" d="M1289.55,-1295.61C1295.24,-1285.62 1301.58,-1272.58 1304.5,-1260 1308.12,-1244.41 1308.43,-1239.51 1304.5,-1224 1295.56,-1188.72 1291.13,-1177.84 1265.5,-1152 1252.95,-1139.35 1236.74,-1128.86 1221.22,-1120.65"/>
<polygon fill="grey" stroke="grey" stroke-width="2" points="1222.7,-1117.47 1212.2,-1116.07 1219.54,-1123.72 1222.7,-1117.47"/>
</g>
<!-- 43 -->
<g id="node44" class="node">
<title>43</title>
<path fill="none" stroke="#88d856" stroke-width="2" d="M1245,-1188C1245,-1188 1120,-1188 1120,-1188 1114,-1188 1108,-1182 1108,-1176 1108,-1176 1108,-1164 1108,-1164 1108,-1158 1114,-1152 1120,-1152 1120,-1152 1245,-1152 1245,-1152 1251,-1152 1257,-1158 1257,-1164 1257,-1164 1257,-1176 1257,-1176 1257,-1182 1251,-1188 1245,-1188"/>
<text text-anchor="middle" x="1182.5" y="-1167.5" font-family="sans" font-size="10.00">medaka_annotate_variants</text>
</g>
<!-- 18&#45;&gt;43 -->
<g id="edge83" class="edge">
<title>18&#45;&gt;43</title>
<path fill="none" stroke="grey" stroke-width="2" d="M1222.41,-1301.36C1199.78,-1293.62 1175.91,-1280.86 1162.5,-1260 1150.34,-1241.08 1157.83,-1215.76 1166.9,-1196.97"/>
<polygon fill="grey" stroke="grey" stroke-width="2" points="1170.03,-1198.55 1171.55,-1188.07 1163.82,-1195.31 1170.03,-1198.55"/>
</g>
<!-- 44 -->
<g id="node45" class="node">
<title>44</title>
<path fill="none" stroke="#d87d56" stroke-width="2" d="M1283,-1260C1283,-1260 1184,-1260 1184,-1260 1178,-1260 1172,-1254 1172,-1248 1172,-1248 1172,-1236 1172,-1236 1172,-1230 1178,-1224 1184,-1224 1184,-1224 1283,-1224 1283,-1224 1289,-1224 1295,-1230 1295,-1236 1295,-1236 1295,-1248 1295,-1248 1295,-1254 1289,-1260 1283,-1260"/>
<text text-anchor="middle" x="1233.5" y="-1239.5" font-family="sans" font-size="10.00">medaka_call_variants</text>
</g>
<!-- 18&#45;&gt;44 -->
<g id="edge84" class="edge">
<title>18&#45;&gt;44</title>
<path fill="none" stroke="grey" stroke-width="2" d="M1267.38,-1295.7C1262.14,-1287.56 1255.8,-1277.69 1250.02,-1268.7"/>
<polygon fill="grey" stroke="grey" stroke-width="2" points="1252.85,-1266.62 1244.5,-1260.1 1246.96,-1270.41 1252.85,-1266.62"/>
</g>
<!-- 19 -->
<g id="node20" class="node">
<title>19</title>
<path fill="none" stroke="#d85e56" stroke-width="2" d="M1863,-1404C1863,-1404 1816,-1404 1816,-1404 1810,-1404 1804,-1398 1804,-1392 1804,-1392 1804,-1380 1804,-1380 1804,-1374 1810,-1368 1816,-1368 1816,-1368 1863,-1368 1863,-1368 1869,-1368 1875,-1374 1875,-1380 1875,-1380 1875,-1392 1875,-1392 1875,-1398 1869,-1404 1863,-1404"/>
<text text-anchor="middle" x="1839.5" y="-1383.5" font-family="sans" font-size="10.00">nanofilt_SE</text>
</g>
<!-- 19&#45;&gt;18 -->
<g id="edge20" class="edge">
<title>19&#45;&gt;18</title>
<path fill="none" stroke="grey" stroke-width="2" d="M1803.98,-1380.57C1711.89,-1369.08 1464.29,-1338.18 1344.8,-1323.27"/>
<polygon fill="grey" stroke="grey" stroke-width="2" points="1345.04,-1319.78 1334.68,-1322.01 1344.17,-1326.72 1345.04,-1319.78"/>
</g>
<!-- 21 -->
<g id="node22" class="node">
<title>21</title>
<path fill="none" stroke="#8fd856" stroke-width="2" d="M1820,-1260C1820,-1260 1737,-1260 1737,-1260 1731,-1260 1725,-1254 1725,-1248 1725,-1248 1725,-1236 1725,-1236 1725,-1230 1731,-1224 1737,-1224 1737,-1224 1820,-1224 1820,-1224 1826,-1224 1832,-1230 1832,-1236 1832,-1236 1832,-1248 1832,-1248 1832,-1254 1826,-1260 1820,-1260"/>
<text text-anchor="middle" x="1778.5" y="-1239.5" font-family="sans" font-size="10.00">trimmed_nanostat</text>
</g>
<!-- 19&#45;&gt;21 -->
<g id="edge21" class="edge">
<title>19&#45;&gt;21</title>
<path fill="none" stroke="grey" stroke-width="2" d="M1832.14,-1367.87C1821.65,-1343.46 1802.31,-1298.43 1789.94,-1269.64"/>
<polygon fill="grey" stroke="grey" stroke-width="2" points="1793.05,-1268 1785.88,-1260.19 1786.62,-1270.76 1793.05,-1268"/>
</g>
<!-- 27 -->
<g id="node28" class="node">
<title>27</title>
<path fill="none" stroke="#d88556" stroke-width="2" d="M1880,-396C1880,-396 1827,-396 1827,-396 1821,-396 1815,-390 1815,-384 1815,-384 1815,-372 1815,-372 1815,-366 1821,-360 1827,-360 1827,-360 1880,-360 1880,-360 1886,-360 1892,-366 1892,-372 1892,-372 1892,-384 1892,-384 1892,-390 1886,-396 1880,-396"/>
<text text-anchor="middle" x="1853.5" y="-375.5" font-family="sans" font-size="10.00">abricate_ont</text>
</g>
<!-- 19&#45;&gt;27 -->
<g id="edge26" class="edge">
<title>19&#45;&gt;27</title>
<path fill="none" stroke="grey" stroke-width="2" d="M1843.75,-1367.63C1849.89,-1340.99 1860.5,-1288.36 1860.5,-1243 1860.5,-1243 1860.5,-1243 1860.5,-521 1860.5,-480.95 1857.69,-434.62 1855.63,-406.06"/>
<polygon fill="grey" stroke="grey" stroke-width="2" points="1859.11,-405.75 1854.88,-396.04 1852.13,-406.27 1859.11,-405.75"/>
</g>
<!-- 19&#45;&gt;28 -->
<g id="edge28" class="edge">
<title>19&#45;&gt;28</title>
<path fill="none" stroke="grey" stroke-width="2" d="M1857.08,-1367.98C1880.9,-1342.99 1920.5,-1293.8 1920.5,-1243 1920.5,-1243 1920.5,-1243 1920.5,-161 1920.5,-118.16 1918.29,-96.99 1883.5,-72 1824.04,-29.28 1301.83,-20.84 1156.11,-19.32"/>
<polygon fill="grey" stroke="grey" stroke-width="2" points="1155.93,-15.81 1145.89,-19.21 1155.86,-22.81 1155.93,-15.81"/>
</g>
<!-- 20 -->
<g id="node21" class="node">
<title>20</title>
<path fill="none" stroke="#56a2d8" stroke-width="2" d="M2292,-108C2292,-108 2233,-108 2233,-108 2227,-108 2221,-102 2221,-96 2221,-96 2221,-84 2221,-84 2221,-78 2227,-72 2233,-72 2233,-72 2292,-72 2292,-72 2298,-72 2304,-78 2304,-84 2304,-84 2304,-96 2304,-96 2304,-102 2298,-108 2292,-108"/>
<text text-anchor="middle" x="2262.5" y="-87.5" font-family="sans" font-size="10.00">raw_nanostat</text>
</g>
<!-- 20&#45;&gt;28 -->
<g id="edge29" class="edge">
<title>20&#45;&gt;28</title>
<path fill="none" stroke="grey" stroke-width="2" d="M2221,-74.14C2217.81,-73.31 2214.62,-72.58 2211.5,-72 2002.51,-32.87 1323.38,-21.65 1156.03,-19.45"/>
<polygon fill="grey" stroke="grey" stroke-width="2" points="1155.8,-15.94 1145.76,-19.31 1155.71,-22.94 1155.8,-15.94"/>
</g>
<!-- 21&#45;&gt;28 -->
<g id="edge44" class="edge">
<title>21&#45;&gt;28</title>
<path fill="none" stroke="grey" stroke-width="2" d="M1780.08,-1223.97C1782.41,-1197.33 1786.5,-1144.19 1786.5,-1099 1786.5,-1099 1786.5,-1099 1786.5,-449 1786.5,-280.55 1940.07,-195.48 1825.5,-72 1779.71,-22.64 1295.73,-18.94 1156.05,-18.91"/>
<polygon fill="grey" stroke="grey" stroke-width="2" points="1155.84,-15.41 1145.84,-18.91 1155.85,-22.41 1155.84,-15.41"/>
</g>
<!-- 22 -->
<g id="node23" class="node">
<title>22</title>
<path fill="none" stroke="#d86656" stroke-width="2" d="M441.5,-540C441.5,-540 361.5,-540 361.5,-540 355.5,-540 349.5,-534 349.5,-528 349.5,-528 349.5,-516 349.5,-516 349.5,-510 355.5,-504 361.5,-504 361.5,-504 441.5,-504 441.5,-504 447.5,-504 453.5,-510 453.5,-516 453.5,-516 453.5,-528 453.5,-528 453.5,-534 447.5,-540 441.5,-540"/>
<text text-anchor="middle" x="401.5" y="-519.5" font-family="sans" font-size="10.00">abricate_pangolin</text>
</g>
<!-- 64 -->
<g id="node65" class="node">
<title>64</title>
<path fill="none" stroke="#5663d8" stroke-width="2" d="M419,-468C419,-468 384,-468 384,-468 378,-468 372,-462 372,-456 372,-456 372,-444 372,-444 372,-438 378,-432 384,-432 384,-432 419,-432 419,-432 425,-432 431,-438 431,-444 431,-444 431,-456 431,-456 431,-462 425,-468 419,-468"/>
<text text-anchor="middle" x="401.5" y="-447.5" font-family="sans" font-size="10.00">pangolin</text>
</g>
<!-- 22&#45;&gt;64 -->
<g id="edge106" class="edge">
<title>22&#45;&gt;64</title>
<path fill="none" stroke="grey" stroke-width="2" d="M401.5,-503.7C401.5,-495.98 401.5,-486.71 401.5,-478.11"/>
<polygon fill="grey" stroke="grey" stroke-width="2" points="405,-478.1 401.5,-468.1 398,-478.1 405,-478.1"/>
</g>
<!-- 24 -->
<g id="node25" class="node">
<title>24</title>
<path fill="none" stroke="#568ad8" stroke-width="2" d="M2048,-108C2048,-108 1999,-108 1999,-108 1993,-108 1987,-102 1987,-96 1987,-96 1987,-84 1987,-84 1987,-78 1993,-72 1999,-72 1999,-72 2048,-72 2048,-72 2054,-72 2060,-78 2060,-84 2060,-84 2060,-96 2060,-96 2060,-102 2054,-108 2048,-108"/>
<text text-anchor="middle" x="2023.5" y="-87.5" font-family="sans" font-size="10.00">abricate_se</text>
</g>
<!-- 23&#45;&gt;24 -->
<g id="edge23" class="edge">
<title>23&#45;&gt;24</title>
<path fill="none" stroke="grey" stroke-width="2" d="M2070.93,-143.7C2063.3,-135.22 2053.98,-124.86 2045.62,-115.58"/>
<polygon fill="grey" stroke="grey" stroke-width="2" points="2048.19,-113.2 2038.89,-108.1 2042.98,-117.88 2048.19,-113.2"/>
</g>
<!-- 23&#45;&gt;28 -->
<g id="edge55" class="edge">
<title>23&#45;&gt;28</title>
<path fill="none" stroke="grey" stroke-width="2" d="M2088.82,-143.94C2090.53,-123.47 2089.74,-89.71 2069.5,-72 2034.53,-41.4 1327.7,-23.67 1155.89,-19.81"/>
<polygon fill="grey" stroke="grey" stroke-width="2" points="1155.89,-16.31 1145.81,-19.58 1155.73,-23.3 1155.89,-16.31"/>
</g>
<!-- 24&#45;&gt;28 -->
<g id="edge36" class="edge">
<title>24&#45;&gt;28</title>
<path fill="none" stroke="grey" stroke-width="2" d="M1986.75,-75.5C1982.01,-74.13 1977.17,-72.91 1972.5,-72 1812.45,-40.91 1298.99,-24.17 1155.86,-20.03"/>
<polygon fill="grey" stroke="grey" stroke-width="2" points="1155.91,-16.53 1145.82,-19.74 1155.71,-23.53 1155.91,-16.53"/>
</g>
<!-- 26 -->
<g id="node27" class="node">
<title>26</title>
<path fill="none" stroke="#56d8b9" stroke-width="2" d="M167.5,-108C167.5,-108 117.5,-108 117.5,-108 111.5,-108 105.5,-102 105.5,-96 105.5,-96 105.5,-84 105.5,-84 105.5,-78 111.5,-72 117.5,-72 117.5,-72 167.5,-72 167.5,-72 173.5,-72 179.5,-78 179.5,-84 179.5,-84 179.5,-96 179.5,-96 179.5,-102 173.5,-108 167.5,-108"/>
<text text-anchor="middle" x="142.5" y="-87.5" font-family="sans" font-size="10.00">abricate_pe</text>
</g>
<!-- 25&#45;&gt;26 -->
<g id="edge25" class="edge">
<title>25&#45;&gt;26</title>
<path fill="none" stroke="grey" stroke-width="2" d="M142.5,-143.7C142.5,-135.98 142.5,-126.71 142.5,-118.11"/>
<polygon fill="grey" stroke="grey" stroke-width="2" points="146,-118.1 142.5,-108.1 139,-118.1 146,-118.1"/>
</g>
<!-- 25&#45;&gt;28 -->
<g id="edge27" class="edge">
<title>25&#45;&gt;28</title>
<path fill="none" stroke="grey" stroke-width="2" d="M156.97,-143.87C177.26,-120.34 213.66,-80.02 231.5,-72 309.81,-36.79 922.77,-22.74 1081.22,-19.67"/>
<polygon fill="grey" stroke="grey" stroke-width="2" points="1081.47,-23.17 1091.41,-19.48 1081.34,-16.17 1081.47,-23.17"/>
</g>
<!-- 26&#45;&gt;28 -->
<g id="edge48" class="edge">
<title>26&#45;&gt;28</title>
<path fill="none" stroke="grey" stroke-width="2" d="M179.52,-75.4C184.18,-74.06 188.92,-72.88 193.5,-72 368.02,-38.53 930.32,-23.35 1081.04,-19.83"/>
<polygon fill="grey" stroke="grey" stroke-width="2" points="1081.25,-23.32 1091.17,-19.59 1081.09,-16.32 1081.25,-23.32"/>
</g>
<!-- 27&#45;&gt;28 -->
<g id="edge39" class="edge">
<title>27&#45;&gt;28</title>
<path fill="none" stroke="grey" stroke-width="2" d="M1859.37,-359.74C1867.84,-333.25 1882.5,-280.79 1882.5,-235 1882.5,-235 1882.5,-235 1882.5,-161 1882.5,-120.03 1890.11,-98.06 1858.5,-72 1803.96,-27.03 1298.78,-20.21 1155.95,-19.18"/>
<polygon fill="grey" stroke="grey" stroke-width="2" points="1155.57,-15.68 1145.54,-19.11 1155.52,-22.68 1155.57,-15.68"/>
</g>
<!-- 29 -->
<g id="node30" class="node">
<title>29</title>
<path fill="none" stroke="#56d8b1" stroke-width="2" d="M1804.5,-108C1804.5,-108 1744.5,-108 1744.5,-108 1738.5,-108 1732.5,-102 1732.5,-96 1732.5,-96 1732.5,-84 1732.5,-84 1732.5,-78 1738.5,-72 1744.5,-72 1744.5,-72 1804.5,-72 1804.5,-72 1810.5,-72 1816.5,-78 1816.5,-84 1816.5,-84 1816.5,-96 1816.5,-96 1816.5,-102 1810.5,-108 1804.5,-108"/>
<text text-anchor="middle" x="1774.5" y="-87.5" font-family="sans" font-size="10.00">snpeff_concat</text>
</g>
<!-- 29&#45;&gt;28 -->
<g id="edge47" class="edge">
<title>29&#45;&gt;28</title>
<path fill="none" stroke="grey" stroke-width="2" d="M1732.41,-74.12C1729.41,-73.33 1726.42,-72.61 1723.5,-72 1511.8,-28.08 1251.06,-20.51 1155.68,-19.24"/>
<polygon fill="grey" stroke="grey" stroke-width="2" points="1155.7,-15.74 1145.66,-19.13 1155.62,-22.74 1155.7,-15.74"/>
</g>
<!-- 30 -->
<g id="node31" class="node">
<title>30</title>
<path fill="none" stroke="#56d85b" stroke-width="2" d="M1535.5,-180C1535.5,-180 1505.5,-180 1505.5,-180 1499.5,-180 1493.5,-174 1493.5,-168 1493.5,-168 1493.5,-156 1493.5,-156 1493.5,-150 1499.5,-144 1505.5,-144 1505.5,-144 1535.5,-144 1535.5,-144 1541.5,-144 1547.5,-150 1547.5,-156 1547.5,-156 1547.5,-168 1547.5,-168 1547.5,-174 1541.5,-180 1535.5,-180"/>
<text text-anchor="middle" x="1520.5" y="-159.5" font-family="sans" font-size="10.00">snpeff</text>
</g>
<!-- 30&#45;&gt;29 -->
<g id="edge61" class="edge">
<title>30&#45;&gt;29</title>
<path fill="none" stroke="grey" stroke-width="2" d="M1547.58,-154.54C1584.9,-145.5 1654.39,-128.2 1722.65,-108.16"/>
<polygon fill="grey" stroke="grey" stroke-width="2" points="1723.67,-111.51 1732.27,-105.32 1721.69,-104.8 1723.67,-111.51"/>
</g>
<!-- 46 -->
<g id="node47" class="node">
<title>46</title>
<path fill="none" stroke="#d8c356" stroke-width="2" d="M1545,-108C1545,-108 1450,-108 1450,-108 1444,-108 1438,-102 1438,-96 1438,-96 1438,-84 1438,-84 1438,-78 1444,-72 1450,-72 1450,-72 1545,-72 1545,-72 1551,-72 1557,-78 1557,-84 1557,-84 1557,-96 1557,-96 1557,-102 1551,-108 1545,-108"/>
<text text-anchor="middle" x="1497.5" y="-87.5" font-family="sans" font-size="10.00">snpeff_concat_indels</text>
</g>
<!-- 30&#45;&gt;46 -->
<g id="edge86" class="edge">
<title>30&#45;&gt;46</title>
<path fill="none" stroke="grey" stroke-width="2" d="M1514.81,-143.7C1512.25,-135.9 1509.17,-126.51 1506.32,-117.83"/>
<polygon fill="grey" stroke="grey" stroke-width="2" points="1509.57,-116.51 1503.12,-108.1 1502.92,-118.7 1509.57,-116.51"/>
</g>
<!-- 47 -->
<g id="node48" class="node">
<title>47</title>
<path fill="none" stroke="#56d892" stroke-width="2" d="M1702,-108C1702,-108 1587,-108 1587,-108 1581,-108 1575,-102 1575,-96 1575,-96 1575,-84 1575,-84 1575,-78 1581,-72 1587,-72 1587,-72 1702,-72 1702,-72 1708,-72 1714,-78 1714,-84 1714,-84 1714,-96 1714,-96 1714,-102 1708,-108 1702,-108"/>
<text text-anchor="middle" x="1644.5" y="-87.5" font-family="sans" font-size="10.00">proportions_iSNVs_graph</text>
</g>
<!-- 30&#45;&gt;47 -->
<g id="edge87" class="edge">
<title>30&#45;&gt;47</title>
<path fill="none" stroke="grey" stroke-width="2" d="M1547.71,-145.64C1564.62,-136.09 1586.64,-123.67 1605.4,-113.07"/>
<polygon fill="grey" stroke="grey" stroke-width="2" points="1607.32,-116.01 1614.31,-108.04 1603.88,-109.91 1607.32,-116.01"/>
</g>
<!-- 31&#45;&gt;30 -->
<g id="edge62" class="edge">
<title>31&#45;&gt;30</title>
<path fill="none" stroke="grey" stroke-width="2" d="M1520.5,-935.95C1520.5,-909.29 1520.5,-856.11 1520.5,-811 1520.5,-811 1520.5,-811 1520.5,-305 1520.5,-265 1520.5,-218.65 1520.5,-190.08"/>
<polygon fill="grey" stroke="grey" stroke-width="2" points="1524,-190.05 1520.5,-180.05 1517,-190.05 1524,-190.05"/>
</g>
<!-- 32 -->
<g id="node33" class="node">
<title>32</title>
<path fill="none" stroke="#56c1d8" stroke-width="2" d="M1477,-252C1477,-252 1412,-252 1412,-252 1406,-252 1400,-246 1400,-240 1400,-240 1400,-228 1400,-228 1400,-222 1406,-216 1412,-216 1412,-216 1477,-216 1477,-216 1483,-216 1489,-222 1489,-228 1489,-228 1489,-240 1489,-240 1489,-246 1483,-252 1477,-252"/>
<text text-anchor="middle" x="1444.5" y="-231.5" font-family="sans" font-size="10.00">prepare_snpeff</text>
</g>
<!-- 32&#45;&gt;28 -->
<g id="edge60" class="edge">
<title>32&#45;&gt;28</title>
<path fill="none" stroke="grey" stroke-width="2" d="M1443.52,-215.85C1440.64,-182.65 1429.38,-109.55 1385.5,-72 1351.4,-42.82 1220.94,-27.77 1155.86,-21.94"/>
<polygon fill="grey" stroke="grey" stroke-width="2" points="1155.9,-18.43 1145.63,-21.05 1155.29,-25.4 1155.9,-18.43"/>
</g>
<!-- 32&#45;&gt;30 -->
<g id="edge63" class="edge">
<title>32&#45;&gt;30</title>
<path fill="none" stroke="grey" stroke-width="2" d="M1463.29,-215.7C1472.67,-207.05 1484.18,-196.45 1494.41,-187.03"/>
<polygon fill="grey" stroke="grey" stroke-width="2" points="1496.95,-189.45 1501.93,-180.1 1492.2,-184.3 1496.95,-189.45"/>
</g>
<!-- 34 -->
<g id="node35" class="node">
<title>34</title>
<path fill="none" stroke="#568ad8" stroke-width="2" d="M1324.5,-180C1324.5,-180 1260.5,-180 1260.5,-180 1254.5,-180 1248.5,-174 1248.5,-168 1248.5,-168 1248.5,-156 1248.5,-156 1248.5,-150 1254.5,-144 1260.5,-144 1260.5,-144 1324.5,-144 1324.5,-144 1330.5,-144 1336.5,-150 1336.5,-156 1336.5,-156 1336.5,-168 1336.5,-168 1336.5,-174 1330.5,-180 1324.5,-180"/>
<text text-anchor="middle" x="1292.5" y="-159.5" font-family="sans" font-size="10.00">snpeff_sample</text>
</g>
<!-- 32&#45;&gt;34 -->
<g id="edge68" class="edge">
<title>32&#45;&gt;34</title>
<path fill="none" stroke="grey" stroke-width="2" d="M1407.32,-215.88C1386.63,-206.35 1360.7,-194.41 1338.72,-184.28"/>
<polygon fill="grey" stroke="grey" stroke-width="2" points="1340.11,-181.07 1329.56,-180.07 1337.18,-187.43 1340.11,-181.07"/>
</g>
<!-- 33 -->
<g id="node34" class="node">
<title>33</title>
<path fill="none" stroke="#a7d856" stroke-width="2" d="M1331.5,-108C1331.5,-108 1253.5,-108 1253.5,-108 1247.5,-108 1241.5,-102 1241.5,-96 1241.5,-96 1241.5,-84 1241.5,-84 1241.5,-78 1247.5,-72 1253.5,-72 1253.5,-72 1331.5,-72 1331.5,-72 1337.5,-72 1343.5,-78 1343.5,-84 1343.5,-84 1343.5,-96 1343.5,-96 1343.5,-102 1337.5,-108 1331.5,-108"/>
<text text-anchor="middle" x="1292.5" y="-87.5" font-family="sans" font-size="10.00">variant_validated</text>
</g>
<!-- 33&#45;&gt;28 -->
<g id="edge35" class="edge">
<title>33&#45;&gt;28</title>
<path fill="none" stroke="grey" stroke-width="2" d="M1249.93,-71.88C1220.87,-60.18 1182.75,-44.85 1155.05,-33.7"/>
<polygon fill="grey" stroke="grey" stroke-width="2" points="1156.31,-30.44 1145.72,-29.95 1153.69,-36.93 1156.31,-30.44"/>
</g>
<!-- 34&#45;&gt;33 -->
<g id="edge67" class="edge">
<title>34&#45;&gt;33</title>
<path fill="none" stroke="grey" stroke-width="2" d="M1292.5,-143.7C1292.5,-135.98 1292.5,-126.71 1292.5,-118.11"/>
<polygon fill="grey" stroke="grey" stroke-width="2" points="1296,-118.1 1292.5,-108.1 1289,-118.1 1296,-118.1"/>
</g>
<!-- 35&#45;&gt;34 -->
<g id="edge69" class="edge">
<title>35&#45;&gt;34</title>
<path fill="none" stroke="grey" stroke-width="2" d="M1240.07,-575.76C1258.86,-550.1 1290.5,-499.67 1290.5,-451 1290.5,-451 1290.5,-451 1290.5,-305 1290.5,-264.99 1291.3,-218.65 1291.89,-190.08"/>
<polygon fill="grey" stroke="grey" stroke-width="2" points="1295.39,-190.12 1292.1,-180.05 1288.39,-189.97 1295.39,-190.12"/>
</g>
<!-- 35&#45;&gt;49 -->
<g id="edge90" class="edge">
<title>35&#45;&gt;49</title>
<path fill="none" stroke="grey" stroke-width="2" d="M1187.87,-584.13C1138.6,-572.83 1052.48,-553.06 991.51,-539.07"/>
<polygon fill="grey" stroke="grey" stroke-width="2" points="992.11,-535.61 981.58,-536.79 990.54,-542.44 992.11,-535.61"/>
</g>
<!-- 36 -->
<g id="node37" class="node">
<title>36</title>
<path fill="none" stroke="#80d856" stroke-width="2" d="M1244,-684C1244,-684 1083,-684 1083,-684 1077,-684 1071,-678 1071,-672 1071,-672 1071,-660 1071,-660 1071,-654 1077,-648 1083,-648 1083,-648 1244,-648 1244,-648 1250,-648 1256,-654 1256,-660 1256,-660 1256,-672 1256,-672 1256,-678 1250,-684 1244,-684"/>
<text text-anchor="middle" x="1163.5" y="-663.5" font-family="sans" font-size="10.00">mask_regions_consensus_medaka</text>
</g>
<!-- 36&#45;&gt;35 -->
<g id="edge70" class="edge">
<title>36&#45;&gt;35</title>
<path fill="none" stroke="grey" stroke-width="2" d="M1179.07,-647.7C1186.7,-639.22 1196.02,-628.86 1204.38,-619.58"/>
<polygon fill="grey" stroke="grey" stroke-width="2" points="1207.02,-621.88 1211.11,-612.1 1201.81,-617.2 1207.02,-621.88"/>
</g>
<!-- 37 -->
<g id="node38" class="node">
<title>37</title>
<path fill="none" stroke="#56d8a2" stroke-width="2" d="M1226.5,-756C1226.5,-756 1074.5,-756 1074.5,-756 1068.5,-756 1062.5,-750 1062.5,-744 1062.5,-744 1062.5,-732 1062.5,-732 1062.5,-726 1068.5,-720 1074.5,-720 1074.5,-720 1226.5,-720 1226.5,-720 1232.5,-720 1238.5,-726 1238.5,-732 1238.5,-732 1238.5,-744 1238.5,-744 1238.5,-750 1232.5,-756 1226.5,-756"/>
<text text-anchor="middle" x="1150.5" y="-735.5" font-family="sans" font-size="10.00">get_masked_consensus_medaka</text>
</g>
<!-- 37&#45;&gt;36 -->
<g id="edge72" class="edge">
<title>37&#45;&gt;36</title>
<path fill="none" stroke="grey" stroke-width="2" d="M1153.71,-719.7C1155.15,-711.98 1156.87,-702.71 1158.46,-694.11"/>
<polygon fill="grey" stroke="grey" stroke-width="2" points="1161.94,-694.58 1160.32,-684.1 1155.06,-693.3 1161.94,-694.58"/>
</g>
<!-- 38 -->
<g id="node39" class="node">
<title>38</title>
<path fill="none" stroke="#566bd8" stroke-width="2" d="M1198,-828C1198,-828 1099,-828 1099,-828 1093,-828 1087,-822 1087,-816 1087,-816 1087,-804 1087,-804 1087,-798 1093,-792 1099,-792 1099,-792 1198,-792 1198,-792 1204,-792 1210,-798 1210,-804 1210,-804 1210,-816 1210,-816 1210,-822 1204,-828 1198,-828"/>
<text text-anchor="middle" x="1148.5" y="-807.5" font-family="sans" font-size="10.00">msa_masker_medaka</text>
</g>
<!-- 38&#45;&gt;37 -->
<g id="edge73" class="edge">
<title>38&#45;&gt;37</title>
<path fill="none" stroke="grey" stroke-width="2" d="M1148.99,-791.7C1149.21,-783.98 1149.48,-774.71 1149.73,-766.11"/>
<polygon fill="grey" stroke="grey" stroke-width="2" points="1153.22,-766.2 1150.01,-756.1 1146.23,-766 1153.22,-766.2"/>
</g>
<!-- 39 -->
<g id="node40" class="node">
<title>39</title>
<path fill="none" stroke="#d86e56" stroke-width="2" d="M1201.5,-900C1201.5,-900 1095.5,-900 1095.5,-900 1089.5,-900 1083.5,-894 1083.5,-888 1083.5,-888 1083.5,-876 1083.5,-876 1083.5,-870 1089.5,-864 1095.5,-864 1095.5,-864 1201.5,-864 1201.5,-864 1207.5,-864 1213.5,-870 1213.5,-876 1213.5,-876 1213.5,-888 1213.5,-888 1213.5,-894 1207.5,-900 1201.5,-900"/>
<text text-anchor="middle" x="1148.5" y="-879.5" font-family="sans" font-size="10.00">align_w_mafft_medaka</text>
</g>
<!-- 39&#45;&gt;38 -->
<g id="edge74" class="edge">
<title>39&#45;&gt;38</title>
<path fill="none" stroke="grey" stroke-width="2" d="M1148.5,-863.7C1148.5,-855.98 1148.5,-846.71 1148.5,-838.11"/>
<polygon fill="grey" stroke="grey" stroke-width="2" points="1152,-838.1 1148.5,-828.1 1145,-838.1 1152,-838.1"/>
</g>
<!-- 40 -->
<g id="node41" class="node">
<title>40</title>
<path fill="none" stroke="#566bd8" stroke-width="2" d="M1174,-972C1174,-972 1101,-972 1101,-972 1095,-972 1089,-966 1089,-960 1089,-960 1089,-948 1089,-948 1089,-942 1095,-936 1101,-936 1101,-936 1174,-936 1174,-936 1180,-936 1186,-942 1186,-948 1186,-948 1186,-960 1186,-960 1186,-966 1180,-972 1174,-972"/>
<text text-anchor="middle" x="1137.5" y="-951.5" font-family="sans" font-size="10.00">create_align_file</text>
</g>
<!-- 40&#45;&gt;39 -->
<g id="edge76" class="edge">
<title>40&#45;&gt;39</title>
<path fill="none" stroke="grey" stroke-width="2" d="M1140.22,-935.7C1141.43,-927.98 1142.89,-918.71 1144.24,-910.11"/>
<polygon fill="grey" stroke="grey" stroke-width="2" points="1147.72,-910.53 1145.81,-900.1 1140.8,-909.44 1147.72,-910.53"/>
</g>
<!-- 41 -->
<g id="node42" class="node">
<title>41</title>
<path fill="none" stroke="#d87d56" stroke-width="2" d="M1188.5,-1044C1188.5,-1044 1124.5,-1044 1124.5,-1044 1118.5,-1044 1112.5,-1038 1112.5,-1032 1112.5,-1032 1112.5,-1020 1112.5,-1020 1112.5,-1014 1118.5,-1008 1124.5,-1008 1124.5,-1008 1188.5,-1008 1188.5,-1008 1194.5,-1008 1200.5,-1014 1200.5,-1020 1200.5,-1020 1200.5,-1032 1200.5,-1032 1200.5,-1038 1194.5,-1044 1188.5,-1044"/>
<text text-anchor="middle" x="1156.5" y="-1023.5" font-family="sans" font-size="10.00">bcf_consensus</text>
</g>
<!-- 41&#45;&gt;40 -->
<g id="edge77" class="edge">
<title>41&#45;&gt;40</title>
<path fill="none" stroke="grey" stroke-width="2" d="M1151.8,-1007.7C1149.69,-999.9 1147.14,-990.51 1144.78,-981.83"/>
<polygon fill="grey" stroke="grey" stroke-width="2" points="1148.14,-980.84 1142.14,-972.1 1141.38,-982.67 1148.14,-980.84"/>
</g>
<!-- 42&#45;&gt;41 -->
<g id="edge78" class="edge">
<title>42&#45;&gt;41</title>
<path fill="none" stroke="grey" stroke-width="2" d="M1166.29,-1079.7C1164.85,-1071.98 1163.13,-1062.71 1161.54,-1054.11"/>
<polygon fill="grey" stroke="grey" stroke-width="2" points="1164.94,-1053.3 1159.68,-1044.1 1158.06,-1054.58 1164.94,-1053.3"/>
</g>
<!-- 43&#45;&gt;42 -->
<g id="edge79" class="edge">
<title>43&#45;&gt;42</title>
<path fill="none" stroke="grey" stroke-width="2" d="M1179.29,-1151.7C1177.85,-1143.98 1176.13,-1134.71 1174.54,-1126.11"/>
<polygon fill="grey" stroke="grey" stroke-width="2" points="1177.94,-1125.3 1172.68,-1116.1 1171.06,-1126.58 1177.94,-1125.3"/>
</g>
<!-- 44&#45;&gt;43 -->
<g id="edge82" class="edge">
<title>44&#45;&gt;43</title>
<path fill="none" stroke="grey" stroke-width="2" d="M1220.89,-1223.7C1214.9,-1215.47 1207.62,-1205.48 1201.02,-1196.42"/>
<polygon fill="grey" stroke="grey" stroke-width="2" points="1203.68,-1194.13 1194.96,-1188.1 1198.02,-1198.25 1203.68,-1194.13"/>
</g>
<!-- 45&#45;&gt;38 -->
<g id="edge75" class="edge">
<title>45&#45;&gt;38</title>
<path fill="none" stroke="grey" stroke-width="2" d="M1041.99,-863.88C1060.94,-854.47 1084.63,-842.71 1104.86,-832.67"/>
<polygon fill="grey" stroke="grey" stroke-width="2" points="1106.47,-835.77 1113.87,-828.19 1103.36,-829.5 1106.47,-835.77"/>
</g>
<!-- 46&#45;&gt;28 -->
<g id="edge54" class="edge">
<title>46&#45;&gt;28</title>
<path fill="none" stroke="grey" stroke-width="2" d="M1437.79,-74.99C1432.96,-73.95 1428.15,-72.94 1423.5,-72 1327.28,-52.6 1213.12,-33.91 1155.59,-24.78"/>
<polygon fill="grey" stroke="grey" stroke-width="2" points="1155.94,-21.3 1145.52,-23.19 1154.85,-28.21 1155.94,-21.3"/>
</g>
<!-- 47&#45;&gt;28 -->
<g id="edge40" class="edge">
<title>47&#45;&gt;28</title>
<path fill="none" stroke="grey" stroke-width="2" d="M1574.82,-73.46C1572.02,-72.95 1569.23,-72.46 1566.5,-72 1415.08,-46.6 1232.87,-29.02 1155.81,-22.18"/>
<polygon fill="grey" stroke="grey" stroke-width="2" points="1155.92,-18.68 1145.65,-21.29 1155.3,-25.65 1155.92,-18.68"/>
</g>
<!-- 48 -->
<g id="node49" class="node">
<title>48</title>
<path fill="none" stroke="#bed856" stroke-width="2" d="M572.5,-180C572.5,-180 542.5,-180 542.5,-180 536.5,-180 530.5,-174 530.5,-168 530.5,-168 530.5,-156 530.5,-156 530.5,-150 536.5,-144 542.5,-144 542.5,-144 572.5,-144 572.5,-144 578.5,-144 584.5,-150 584.5,-156 584.5,-156 584.5,-168 584.5,-168 584.5,-174 578.5,-180 572.5,-180"/>
<text text-anchor="middle" x="557.5" y="-159.5" font-family="sans" font-size="10.00">mafft</text>
</g>
<!-- 48&#45;&gt;28 -->
<g id="edge32" class="edge">
<title>48&#45;&gt;28</title>
<path fill="none" stroke="grey" stroke-width="2" d="M543.05,-143.82C528.32,-124.18 510.08,-92.15 528.5,-72 565.84,-31.16 957.42,-21.53 1081.21,-19.5"/>
<polygon fill="grey" stroke="grey" stroke-width="2" points="1081.39,-22.99 1091.34,-19.34 1081.28,-16 1081.39,-22.99"/>
</g>
<!-- 52 -->
<g id="node53" class="node">
<title>52</title>
<path fill="none" stroke="#56d0d8" stroke-width="2" d="M661,-108C661,-108 550,-108 550,-108 544,-108 538,-102 538,-96 538,-96 538,-84 538,-84 538,-78 544,-72 550,-72 550,-72 661,-72 661,-72 667,-72 673,-78 673,-84 673,-84 673,-96 673,-96 673,-102 667,-108 661,-108"/>
<text text-anchor="middle" x="605.5" y="-87.5" font-family="sans" font-size="10.00">alignment_nt_All_seqret</text>
</g>
<!-- 48&#45;&gt;52 -->
<g id="edge93" class="edge">
<title>48&#45;&gt;52</title>
<path fill="none" stroke="grey" stroke-width="2" d="M569.37,-143.7C575,-135.47 581.85,-125.48 588.07,-116.42"/>
<polygon fill="grey" stroke="grey" stroke-width="2" points="591,-118.33 593.77,-108.1 585.23,-114.37 591,-118.33"/>
</g>
<!-- 54 -->
<g id="node55" class="node">
<title>54</title>
<path fill="none" stroke="#56d86b" stroke-width="2" d="M469,-108C469,-108 438,-108 438,-108 432,-108 426,-102 426,-96 426,-96 426,-84 426,-84 426,-78 432,-72 438,-72 438,-72 469,-72 469,-72 475,-72 481,-78 481,-84 481,-84 481,-96 481,-96 481,-102 475,-108 469,-108"/>
<text text-anchor="middle" x="453.5" y="-87.5" font-family="sans" font-size="10.00">fasttree</text>
</g>
<!-- 48&#45;&gt;54 -->
<g id="edge95" class="edge">
<title>48&#45;&gt;54</title>
<path fill="none" stroke="grey" stroke-width="2" d="M532.06,-143.88C518.71,-134.89 502.18,-123.76 487.72,-114.03"/>
<polygon fill="grey" stroke="grey" stroke-width="2" points="489.29,-110.87 479.04,-108.19 485.38,-116.68 489.29,-110.87"/>
</g>
<!-- 49&#45;&gt;28 -->
<g id="edge57" class="edge">
<title>49&#45;&gt;28</title>
<path fill="none" stroke="grey" stroke-width="2" d="M861.08,-517.82C812.92,-512.82 745.52,-500.12 695.5,-468 604.92,-409.83 343.3,-150.93 416.5,-72 461.96,-22.98 942.52,-19.04 1081.22,-18.93"/>
<polygon fill="grey" stroke="grey" stroke-width="2" points="1081.35,-22.43 1091.35,-18.93 1081.35,-15.43 1081.35,-22.43"/>
</g>
<!-- 49&#45;&gt;48 -->
<g id="edge88" class="edge">
<title>49&#45;&gt;48</title>
<path fill="none" stroke="grey" stroke-width="2" d="M861.43,-512.56C789.47,-498.66 678.5,-463.53 678.5,-379 678.5,-379 678.5,-379 678.5,-305 678.5,-252 629.06,-208.74 593.39,-184.42"/>
<polygon fill="grey" stroke="grey" stroke-width="2" points="594.93,-181.24 584.65,-178.65 591.07,-187.08 594.93,-181.24"/>
</g>
<!-- 50 -->
<g id="node51" class="node">
<title>50</title>
<path fill="none" stroke="#d89c56" stroke-width="2" d="M949.5,-396C949.5,-396 893.5,-396 893.5,-396 887.5,-396 881.5,-390 881.5,-384 881.5,-384 881.5,-372 881.5,-372 881.5,-366 887.5,-360 893.5,-360 893.5,-360 949.5,-360 949.5,-360 955.5,-360 961.5,-366 961.5,-372 961.5,-372 961.5,-384 961.5,-384 961.5,-390 955.5,-396 949.5,-396"/>
<text text-anchor="middle" x="921.5" y="-375.5" font-family="sans" font-size="10.00">seqret_all_nt</text>
</g>
<!-- 49&#45;&gt;50 -->
<g id="edge91" class="edge">
<title>49&#45;&gt;50</title>
<path fill="none" stroke="grey" stroke-width="2" d="M921.5,-503.87C921.5,-479.67 921.5,-435.21 921.5,-406.39"/>
<polygon fill="grey" stroke="grey" stroke-width="2" points="925,-406.19 921.5,-396.19 918,-406.19 925,-406.19"/>
</g>
<!-- 51 -->
<g id="node52" class="node">
<title>51</title>
<path fill="none" stroke="#97d856" stroke-width="2" d="M1059,-324C1059,-324 962,-324 962,-324 956,-324 950,-318 950,-312 950,-312 950,-300 950,-300 950,-294 956,-288 962,-288 962,-288 1059,-288 1059,-288 1065,-288 1071,-294 1071,-300 1071,-300 1071,-312 1071,-312 1071,-318 1065,-324 1059,-324"/>
<text text-anchor="middle" x="1010.5" y="-303.5" font-family="sans" font-size="10.00">seqret_all_consensus</text>
</g>
<!-- 49&#45;&gt;51 -->
<g id="edge92" class="edge">
<title>49&#45;&gt;51</title>
<path fill="none" stroke="grey" stroke-width="2" d="M928.63,-503.85C944.13,-466.6 980.94,-378.07 999.46,-333.54"/>
<polygon fill="grey" stroke="grey" stroke-width="2" points="1002.72,-334.81 1003.33,-324.23 996.26,-332.12 1002.72,-334.81"/>
</g>
<!-- 53 -->
<g id="node54" class="node">
<title>53</title>
<path fill="none" stroke="#9fd856" stroke-width="2" d="M1244,-468C1244,-468 1145,-468 1145,-468 1139,-468 1133,-462 1133,-456 1133,-456 1133,-444 1133,-444 1133,-438 1139,-432 1145,-432 1145,-432 1244,-432 1244,-432 1250,-432 1256,-438 1256,-444 1256,-444 1256,-456 1256,-456 1256,-462 1250,-468 1244,-468"/>
<text text-anchor="middle" x="1194.5" y="-447.5" font-family="sans" font-size="10.00">seqret_all_nt_only_90</text>
</g>
<!-- 49&#45;&gt;53 -->
<g id="edge94" class="edge">
<title>49&#45;&gt;53</title>
<path fill="none" stroke="grey" stroke-width="2" d="M981.75,-505.55C1023.5,-494.85 1079.26,-480.55 1123.23,-469.28"/>
<polygon fill="grey" stroke="grey" stroke-width="2" points="1124.17,-472.65 1132.99,-466.77 1122.43,-465.87 1124.17,-472.65"/>
</g>
<!-- 59 -->
<g id="node60" class="node">
<title>59</title>
<path fill="none" stroke="#d8d356" stroke-width="2" d="M1091,-468C1091,-468 1034,-468 1034,-468 1028,-468 1022,-462 1022,-456 1022,-456 1022,-444 1022,-444 1022,-438 1028,-432 1034,-432 1034,-432 1091,-432 1091,-432 1097,-432 1103,-438 1103,-444 1103,-444 1103,-456 1103,-456 1103,-462 1097,-468 1091,-468"/>
<text text-anchor="middle" x="1062.5" y="-447.5" font-family="sans" font-size="10.00">mafft_pre_aa</text>
</g>
<!-- 49&#45;&gt;59 -->
<g id="edge100" class="edge">
<title>49&#45;&gt;59</title>
<path fill="none" stroke="grey" stroke-width="2" d="M955.99,-503.88C974.94,-494.47 998.63,-482.71 1018.86,-472.67"/>
<polygon fill="grey" stroke="grey" stroke-width="2" points="1020.47,-475.77 1027.87,-468.19 1017.36,-469.5 1020.47,-475.77"/>
</g>
<!-- 49&#45;&gt;64 -->
<g id="edge107" class="edge">
<title>49&#45;&gt;64</title>
<path fill="none" stroke="grey" stroke-width="2" d="M861.48,-514.03C780.53,-504.47 631.95,-486.38 505.5,-468 484.17,-464.9 460.44,-461.05 441.04,-457.8"/>
<polygon fill="grey" stroke="grey" stroke-width="2" points="441.49,-454.33 431.04,-456.11 440.32,-461.23 441.49,-454.33"/>
</g>
<!-- 50&#45;&gt;28 -->
<g id="edge43" class="edge">
<title>50&#45;&gt;28</title>
<path fill="none" stroke="grey" stroke-width="2" d="M923.86,-359.97C930.17,-319.29 950.5,-214.58 1000.5,-144 1014.33,-124.48 1023.7,-125.02 1040.5,-108 1060.9,-87.33 1082.55,-62.35 1097.85,-44.13"/>
<polygon fill="grey" stroke="grey" stroke-width="2" points="1100.69,-46.19 1104.41,-36.27 1095.32,-41.7 1100.69,-46.19"/>
</g>
<!-- 51&#45;&gt;28 -->
<g id="edge41" class="edge">
<title>51&#45;&gt;28</title>
<path fill="none" stroke="grey" stroke-width="2" d="M1006.3,-287.56C999.8,-256.34 990.66,-189.88 1017.5,-144 1032.82,-117.81 1055.21,-130.55 1075.5,-108 1091.75,-89.94 1103.18,-64.64 1110.14,-45.63"/>
<polygon fill="grey" stroke="grey" stroke-width="2" points="1113.49,-46.66 1113.47,-36.07 1106.88,-44.36 1113.49,-46.66"/>
</g>
<!-- 52&#45;&gt;28 -->
<g id="edge58" class="edge">
<title>52&#45;&gt;28</title>
<path fill="none" stroke="grey" stroke-width="2" d="M673.03,-73.7C676.23,-73.1 679.4,-72.53 682.5,-72 829.3,-46.93 1005.89,-29.26 1081.36,-22.3"/>
<polygon fill="grey" stroke="grey" stroke-width="2" points="1081.69,-25.78 1091.33,-21.39 1081.05,-18.81 1081.69,-25.78"/>
</g>
<!-- 53&#45;&gt;28 -->
<g id="edge38" class="edge">
<title>53&#45;&gt;28</title>
<path fill="none" stroke="grey" stroke-width="2" d="M1198.95,-431.65C1205.38,-405.02 1216.5,-352.4 1216.5,-307 1216.5,-307 1216.5,-307 1216.5,-233 1216.5,-157.09 1195.85,-138.64 1159.5,-72 1154.24,-62.35 1147.27,-52.6 1140.58,-44.14"/>
<polygon fill="grey" stroke="grey" stroke-width="2" points="1143.09,-41.69 1134.05,-36.17 1137.68,-46.12 1143.09,-41.69"/>
</g>
<!-- 54&#45;&gt;28 -->
<g id="edge30" class="edge">
<title>54&#45;&gt;28</title>
<path fill="none" stroke="grey" stroke-width="2" d="M481.13,-76.46C485.85,-74.72 490.76,-73.13 495.5,-72 712.76,-20.04 983.3,-17.37 1081.07,-18.32"/>
<polygon fill="grey" stroke="grey" stroke-width="2" points="1081.29,-21.82 1091.33,-18.44 1081.37,-14.82 1081.29,-21.82"/>
</g>
<!-- 55 -->
<g id="node56" class="node">
<title>55</title>
<path fill="none" stroke="#5692d8" stroke-width="2" d="M1138,-180C1138,-180 1039,-180 1039,-180 1033,-180 1027,-174 1027,-168 1027,-168 1027,-156 1027,-156 1027,-150 1033,-144 1039,-144 1039,-144 1138,-144 1138,-144 1144,-144 1150,-150 1150,-156 1150,-156 1150,-168 1150,-168 1150,-174 1144,-180 1138,-180"/>
<text text-anchor="middle" x="1088.5" y="-159.5" font-family="sans" font-size="10.00">cp_Alignment_nt_tree</text>
</g>
<!-- 55&#45;&gt;28 -->
<g id="edge34" class="edge">
<title>55&#45;&gt;28</title>
<path fill="none" stroke="grey" stroke-width="2" d="M1098.6,-143.97C1104.05,-133.87 1110.3,-120.62 1113.5,-108 1118.66,-87.66 1119.76,-63.89 1119.65,-46.04"/>
<polygon fill="grey" stroke="grey" stroke-width="2" points="1123.15,-45.95 1119.46,-36.02 1116.15,-46.09 1123.15,-45.95"/>
</g>
<!-- 56 -->
<g id="node57" class="node">
<title>56</title>
<path fill="none" stroke="#c6d856" stroke-width="2" d="M1125.5,-252C1125.5,-252 1079.5,-252 1079.5,-252 1073.5,-252 1067.5,-246 1067.5,-240 1067.5,-240 1067.5,-228 1067.5,-228 1067.5,-222 1073.5,-216 1079.5,-216 1079.5,-216 1125.5,-216 1125.5,-216 1131.5,-216 1137.5,-222 1137.5,-228 1137.5,-228 1137.5,-240 1137.5,-240 1137.5,-246 1131.5,-252 1125.5,-252"/>
<text text-anchor="middle" x="1102.5" y="-231.5" font-family="sans" font-size="10.00">fasttree_nt</text>
</g>
<!-- 56&#45;&gt;55 -->
<g id="edge96" class="edge">
<title>56&#45;&gt;55</title>
<path fill="none" stroke="grey" stroke-width="2" d="M1099.04,-215.7C1097.5,-207.98 1095.64,-198.71 1093.92,-190.11"/>
<polygon fill="grey" stroke="grey" stroke-width="2" points="1097.31,-189.22 1091.92,-180.1 1090.45,-190.6 1097.31,-189.22"/>
</g>
<!-- 57 -->
<g id="node58" class="node">
<title>57</title>
<path fill="none" stroke="#56d882" stroke-width="2" d="M1135.5,-324C1135.5,-324 1101.5,-324 1101.5,-324 1095.5,-324 1089.5,-318 1089.5,-312 1089.5,-312 1089.5,-300 1089.5,-300 1089.5,-294 1095.5,-288 1101.5,-288 1101.5,-288 1135.5,-288 1135.5,-288 1141.5,-288 1147.5,-294 1147.5,-300 1147.5,-300 1147.5,-312 1147.5,-312 1147.5,-318 1141.5,-324 1135.5,-324"/>
<text text-anchor="middle" x="1118.5" y="-303.5" font-family="sans" font-size="10.00">mafft_nt</text>
</g>
<!-- 57&#45;&gt;56 -->
<g id="edge97" class="edge">
<title>57&#45;&gt;56</title>
<path fill="none" stroke="grey" stroke-width="2" d="M1114.54,-287.7C1112.78,-279.98 1110.66,-270.71 1108.7,-262.11"/>
<polygon fill="grey" stroke="grey" stroke-width="2" points="1112.05,-261.07 1106.41,-252.1 1105.23,-262.63 1112.05,-261.07"/>
</g>
<!-- 57&#45;&gt;60 -->
<g id="edge102" class="edge">
<title>57&#45;&gt;60</title>
<path fill="none" stroke="grey" stroke-width="2" d="M1089.33,-291.61C1086.05,-290.31 1082.72,-289.07 1079.5,-288 1015.81,-266.84 939.35,-250.78 893.68,-242.14"/>
<polygon fill="grey" stroke="grey" stroke-width="2" points="894.06,-238.65 883.59,-240.26 892.78,-245.54 894.06,-238.65"/>
</g>
<!-- 58 -->
<g id="node59" class="node">
<title>58</title>
<path fill="none" stroke="#70d856" stroke-width="2" d="M1157,-396C1157,-396 1080,-396 1080,-396 1074,-396 1068,-390 1068,-384 1068,-384 1068,-372 1068,-372 1068,-366 1074,-360 1080,-360 1080,-360 1157,-360 1157,-360 1163,-360 1169,-366 1169,-372 1169,-372 1169,-384 1169,-384 1169,-390 1163,-396 1157,-396"/>
<text text-anchor="middle" x="1118.5" y="-375.5" font-family="sans" font-size="10.00">create_segments</text>
</g>
<!-- 58&#45;&gt;28 -->
<g id="edge50" class="edge">
<title>58&#45;&gt;28</title>
<path fill="none" stroke="grey" stroke-width="2" d="M1134.89,-359.89C1143.06,-350.19 1152.11,-337.34 1156.5,-324 1181.51,-248.01 1170.84,-223.05 1158.5,-144 1153.06,-109.18 1139.59,-70.8 1129.78,-45.87"/>
<polygon fill="grey" stroke="grey" stroke-width="2" points="1132.94,-44.36 1125.97,-36.38 1126.45,-46.97 1132.94,-44.36"/>
</g>
<!-- 58&#45;&gt;57 -->
<g id="edge98" class="edge">
<title>58&#45;&gt;57</title>
<path fill="none" stroke="grey" stroke-width="2" d="M1118.5,-359.7C1118.5,-351.98 1118.5,-342.71 1118.5,-334.11"/>
<polygon fill="grey" stroke="grey" stroke-width="2" points="1122,-334.1 1118.5,-324.1 1115,-334.1 1122,-334.1"/>
</g>
<!-- 59&#45;&gt;58 -->
<g id="edge99" class="edge">
<title>59&#45;&gt;58</title>
<path fill="none" stroke="grey" stroke-width="2" d="M1076.34,-431.7C1082.99,-423.39 1091.08,-413.28 1098.39,-404.14"/>
<polygon fill="grey" stroke="grey" stroke-width="2" points="1101.3,-406.1 1104.82,-396.1 1095.84,-401.73 1101.3,-406.1"/>
</g>
<!-- 60&#45;&gt;28 -->
<g id="edge31" class="edge">
<title>60&#45;&gt;28</title>
<path fill="none" stroke="grey" stroke-width="2" d="M869.35,-215.82C887.15,-197.03 917.36,-166.59 946.5,-144 970.48,-125.41 979.92,-125.78 1004.5,-108 1024.69,-93.39 1027.95,-87.46 1047.5,-72 1060.15,-62 1074.34,-51.3 1086.69,-42.16"/>
<polygon fill="grey" stroke="grey" stroke-width="2" points="1088.93,-44.85 1094.91,-36.1 1084.78,-39.22 1088.93,-44.85"/>
</g>
<!-- 61 -->
<g id="node62" class="node">
<title>61</title>
<path fill="none" stroke="#56d8a9" stroke-width="2" d="M866.5,-180C866.5,-180 802.5,-180 802.5,-180 796.5,-180 790.5,-174 790.5,-168 790.5,-168 790.5,-156 790.5,-156 790.5,-150 796.5,-144 802.5,-144 802.5,-144 866.5,-144 866.5,-144 872.5,-144 878.5,-150 878.5,-156 878.5,-156 878.5,-168 878.5,-168 878.5,-174 872.5,-180 866.5,-180"/>
<text text-anchor="middle" x="834.5" y="-159.5" font-family="sans" font-size="10.00">mafft_proteins</text>
</g>
<!-- 60&#45;&gt;61 -->
<g id="edge103" class="edge">
<title>60&#45;&gt;61</title>
<path fill="none" stroke="grey" stroke-width="2" d="M848.8,-215.7C846.69,-207.9 844.14,-198.51 841.78,-189.83"/>
<polygon fill="grey" stroke="grey" stroke-width="2" points="845.14,-188.84 839.14,-180.1 838.38,-190.67 845.14,-188.84"/>
</g>
<!-- 61&#45;&gt;28 -->
<g id="edge46" class="edge">
<title>61&#45;&gt;28</title>
<path fill="none" stroke="grey" stroke-width="2" d="M829.32,-143.67C824.58,-123.88 820.59,-91.71 837.5,-72 868.63,-35.71 1011.99,-24.03 1081.07,-20.46"/>
<polygon fill="grey" stroke="grey" stroke-width="2" points="1081.28,-23.96 1091.1,-19.98 1080.94,-16.97 1081.28,-23.96"/>
</g>
<!-- 62 -->
<g id="node63" class="node">
<title>62</title>
<path fill="none" stroke="#d8b456" stroke-width="2" d="M984,-108C984,-108 859,-108 859,-108 853,-108 847,-102 847,-96 847,-96 847,-84 847,-84 847,-78 853,-72 859,-72 859,-72 984,-72 984,-72 990,-72 996,-78 996,-84 996,-84 996,-96 996,-96 996,-102 990,-108 984,-108"/>
<text text-anchor="middle" x="921.5" y="-87.5" font-family="sans" font-size="10.00">seqret_alignment_aa_gene</text>
</g>
<!-- 61&#45;&gt;62 -->
<g id="edge104" class="edge">
<title>61&#45;&gt;62</title>
<path fill="none" stroke="grey" stroke-width="2" d="M856.01,-143.7C866.96,-134.88 880.45,-124.03 892.32,-114.47"/>
<polygon fill="grey" stroke="grey" stroke-width="2" points="894.64,-117.1 900.24,-108.1 890.26,-111.65 894.64,-117.1"/>
</g>
<!-- 63 -->
<g id="node64" class="node">
<title>63</title>
<path fill="none" stroke="#78d856" stroke-width="2" d="M779.5,-108C779.5,-108 703.5,-108 703.5,-108 697.5,-108 691.5,-102 691.5,-96 691.5,-96 691.5,-84 691.5,-84 691.5,-78 697.5,-72 703.5,-72 703.5,-72 779.5,-72 779.5,-72 785.5,-72 791.5,-78 791.5,-84 791.5,-84 791.5,-96 791.5,-96 791.5,-102 785.5,-108 779.5,-108"/>
<text text-anchor="middle" x="741.5" y="-87.5" font-family="sans" font-size="10.00">fasttree_proteins</text>
</g>
<!-- 61&#45;&gt;63 -->
<g id="edge105" class="edge">
<title>61&#45;&gt;63</title>
<path fill="none" stroke="grey" stroke-width="2" d="M811.51,-143.7C799.69,-134.8 785.11,-123.82 772.32,-114.2"/>
<polygon fill="grey" stroke="grey" stroke-width="2" points="774.32,-111.32 764.22,-108.1 770.11,-116.91 774.32,-111.32"/>
</g>
<!-- 62&#45;&gt;28 -->
<g id="edge51" class="edge">
<title>62&#45;&gt;28</title>
<path fill="none" stroke="grey" stroke-width="2" d="M969.44,-71.97C1003.97,-59.7 1049.87,-43.38 1081.57,-32.12"/>
<polygon fill="grey" stroke="grey" stroke-width="2" points="1083.08,-35.3 1091.33,-28.65 1080.74,-28.7 1083.08,-35.3"/>
</g>
<!-- 63&#45;&gt;28 -->
<g id="edge49" class="edge">
<title>63&#45;&gt;28</title>
<path fill="none" stroke="grey" stroke-width="2" d="M791.7,-75.2C796.35,-74.06 801.01,-72.98 805.5,-72 904.32,-50.56 1022.28,-32.62 1081.17,-24.19"/>
<polygon fill="grey" stroke="grey" stroke-width="2" points="1081.72,-27.64 1091.12,-22.77 1080.73,-20.71 1081.72,-27.64"/>
</g>
<!-- 64&#45;&gt;28 -->
<g id="edge52" class="edge">
<title>64&#45;&gt;28</title>
<path fill="none" stroke="grey" stroke-width="2" d="M393,-431.99C380.73,-405.82 359.5,-353.79 359.5,-307 359.5,-307 359.5,-307 359.5,-161 359.5,-120.03 351.9,-98.07 383.5,-72 437.61,-27.37 938.32,-20.31 1080.83,-19.2"/>
<polygon fill="grey" stroke="grey" stroke-width="2" points="1081.24,-22.7 1091.22,-19.13 1081.19,-15.7 1081.24,-22.7"/>
</g>
</g>
</svg>
